<?xml version="1.0" encoding="UTF-8" standalone="no"?>
<!-- generated at drububu.com  -->

<svg
   xmlns:dc="http://purl.org/dc/elements/1.1/"
   xmlns:cc="http://creativecommons.org/ns#"
   xmlns:rdf="http://www.w3.org/1999/02/22-rdf-syntax-ns#"
   xmlns:svg="http://www.w3.org/2000/svg"
   xmlns="http://www.w3.org/2000/svg"
   xmlns:sodipodi="http://sodipodi.sourceforge.net/DTD/sodipodi-0.dtd"
   xmlns:inkscape="http://www.inkscape.org/namespaces/inkscape"
   version="1.1"
   preserveAspectRatio="xMinYMin meet"
   x="0px"
   y="0px"
   width="38"
   height="36"
   viewBox="0 0 38 36"
   id="svg3757"
   inkscape:version="0.48.4 r9939"
   sodipodi:docname="blue-monkey.svg">
  <metadata
     id="metadata3851">
    <rdf:RDF>
      <cc:Work
         rdf:about="">
        <dc:format>image/svg+xml</dc:format>
        <dc:type
           rdf:resource="http://purl.org/dc/dcmitype/StillImage" />
      </cc:Work>
    </rdf:RDF>
  </metadata>
  <defs
     id="defs3849" />
  <sodipodi:namedview
     pagecolor="#ffffff"
     bordercolor="#666666"
     borderopacity="1"
     objecttolerance="10"
     gridtolerance="10"
     guidetolerance="10"
     inkscape:pageopacity="0"
     inkscape:pageshadow="2"
     inkscape:window-width="1600"
     inkscape:window-height="838"
     id="namedview3847"
     showgrid="false"
     fit-margin-top="0"
     fit-margin-left="0"
     fit-margin-right="0"
     fit-margin-bottom="0"
     inkscape:zoom="17.566021"
     inkscape:cx="38.22091"
     inkscape:cy="22.013767"
     inkscape:window-x="-8"
     inkscape:window-y="-8"
     inkscape:window-maximized="1"
     inkscape:current-layer="svg3757" />
  <path
     d="m 15,0 h 7 v 1 h 3 v 1 h 2 v 1 h 1 v 1 h 1 v 1 h 2 v 4 h 1 v 5 h -1 v 3 h -1 v 1 h -1 v 1 h -1 v 1 h -1 v 1 h -2 v -4 h 1 v 2 h 1 v -3 h -1 v -1 h -1 v -1 h -2 v -1 h -8 v 1 h -2 v 1 h -1 v 1 h -1 v 3 h 1 v -2 h 1 v 1 h 1 v 3 h 1 v -4 h 1 v 5 h 6 v 1 h 1 v 1 h 1 v 7 h -1 v 3 h -1 v 1 h -1 v 1 h -2 v -4 h -1 v 4 h -2 v -1 h -1 v -1 h -1 v -4 h -1 v -6 h 1 v -1 h 1 V 22 H 13 V 21 H 11 V 20 H 10 V 19 H 9 V 18 H 8 V 17 H 7 V 15 H 6 V 9 H 7 V 5 H 9 V 4 h 1 V 3 h 1 V 2 h 2 V 1 h 2 z"
     id="path3761"
     inkscape:connector-curvature="0"
     style="fill:#3f48cc" />
  <path
     d="m 19,1 h 2 v 1 h 1 V 6 H 20 V 5 h -1 z"
     id="path3763"
     inkscape:connector-curvature="0"
     style="fill:#eeeeee" />
  <path
     d="m 12,3 h 1 v 1 h 1 V 8 H 12 V 7 H 11 V 4 h 1 z"
     id="path3765"
     inkscape:connector-curvature="0"
     style="fill:#eeeeee" />
  <path
     d="M 3,4 H 7 V 5 H 3 z"
     id="path3767"
     inkscape:connector-curvature="0"
     style="fill:#3f48cc" />
  <path
     d="m 31,4 h 4 v 1 h -4 z"
     id="path3769"
     inkscape:connector-curvature="0"
     style="fill:#3f48cc" />
  <path
     d="M 2,5 H 3 V 6 H 2 z"
     id="path3771"
     inkscape:connector-curvature="0"
     style="fill:#3f48cc" />
  <path
     d="M 3,5 H 7 V 9 H 6 v 6 h 1 v 2 H 4 V 16 H 2 V 14 H 1 V 8 H 2 V 6 h 1 z"
     id="path3773"
     inkscape:connector-curvature="0"
     style="fill:#eeeeee" />
  <path
     d="m 15,5 h 3 V 6 H 17 V 8 H 16 V 6 h -1 z"
     id="path3775"
     inkscape:connector-curvature="0"
     style="fill:#eeeeee" />
  <path
     d="m 31,5 h 4 v 1 h 1 v 2 h 1 v 6 h -1 v 2 h -2 v 1 h -3 v -3 h 1 V 9 h -1 z"
     id="path3777"
     inkscape:connector-curvature="0"
     style="fill:#eeeeee" />
  <path
     d="m 35,5 h 1 v 1 h -1 z"
     id="path3779"
     inkscape:connector-curvature="0"
     style="fill:#3f48cc" />
  <path
     d="M 1,6 H 2 V 8 H 1 z"
     id="path3781"
     inkscape:connector-curvature="0"
     style="fill:#3f48cc" />
  <path
     d="m 24,6 h 2 v 1 h 1 v 3 h -1 v 1 H 24 V 10 H 23 V 7 h 1 z"
     id="path3783"
     inkscape:connector-curvature="0"
     style="fill:#eeeeee" />
  <path
     d="m 36,6 h 1 v 2 h -1 z"
     id="path3785"
     inkscape:connector-curvature="0"
     style="fill:#3f48cc" />
  <path
     d="m 19,7 h 1 v 1 h -1 z"
     id="path3787"
     inkscape:connector-curvature="0"
     style="fill:#eeeeee" />
  <path
     d="m 0,8 h 1 v 6 H 0 z"
     id="path3789"
     inkscape:connector-curvature="0"
     style="fill:#3f48cc" />
  <path
     d="m 14,8 h 2 v 1 h -2 z"
     id="path3791"
     inkscape:connector-curvature="0"
     style="fill:#eeeeee" />
  <path
     d="m 17,8 h 2 v 1 h -2 z"
     id="path3793"
     inkscape:connector-curvature="0"
     style="fill:#eeeeee" />
  <path
     d="m 37,8 h 1 v 6 h -1 z"
     id="path3795"
     inkscape:connector-curvature="0"
     style="fill:#3f48cc" />
  <path
     d="m 8,9 h 2 v 1 h 1 v 3 h -1 v 1 H 8 V 13 H 7 v -3 h 1 z"
     id="path3797"
     inkscape:connector-curvature="0"
     style="fill:#eeeeee" />
  <path
     d="m 15,13 h 8 v 1 h -2 v 1 h 2 v -1 h 2 v 1 h 1 v 1 h 1 v 3 h -1 v -2 h -1 v -1 h -2 v 1 h -1 v 5 h -6 v -5 h -1 v -1 h -2 v 1 h -1 v 2 h -1 v -3 h 1 v -1 h 1 v -1 h 2 v 1 h 2 v -1 h -2 z"
     id="path3799"
     inkscape:connector-curvature="0"
     style="fill:#eeeeee" />
  <path
     d="m 1,14 h 1 v 2 H 1 z"
     id="path3803"
     inkscape:connector-curvature="0"
     style="fill:#3f48cc" />
  <path
     d="m 15,14 h 2 v 1 h -2 z"
     id="path3805"
     inkscape:connector-curvature="0"
     style="fill:#3f48cc" />
  <path
     d="m 21,14 h 2 v 1 h -2 z"
     id="path3807"
     inkscape:connector-curvature="0"
     style="fill:#3f48cc" />
  <path
     d="m 36,14 h 1 v 2 h -1 z"
     id="path3809"
     inkscape:connector-curvature="0"
     style="fill:#3f48cc" />
  <path
     d="m 2,16 h 2 v 1 H 2 z"
     id="path3813"
     inkscape:connector-curvature="0"
     style="fill:#3f48cc" />
  <path
     d="m 13,16 h 2 v 1 h -2 z"
     id="path3815"
     inkscape:connector-curvature="0"
     style="fill:#3f48cc" />
  <path
     d="m 23,16 h 2 v 1 h -2 z"
     id="path3817"
     inkscape:connector-curvature="0"
     style="fill:#3f48cc" />
  <path
     d="m 34,16 h 2 v 1 h -2 z"
     id="path3819"
     inkscape:connector-curvature="0"
     style="fill:#3f48cc" />
  <path
     d="m 4,17 h 3 v 1 H 4 z"
     id="path3821"
     inkscape:connector-curvature="0"
     style="fill:#3f48cc" />
  <path
     d="m 13,17 h 2 v 4 h -1 v -3 h -1 z"
     id="path3823"
     inkscape:connector-curvature="0"
     style="fill:#eeeeee" />
  <path
     d="m 22,17 h 1 v 1 h 1 v 3 h 1 v 1 h -3 z"
     id="path3825"
     inkscape:connector-curvature="0"
     style="fill:#3f48cc" />
  <path
     d="m 23,17 h 2 v 4 h -1 v -3 h -1 z"
     id="path3827"
     inkscape:connector-curvature="0"
     style="fill:#eeeeee" />
  <path
     d="m 31,17 h 3 v 1 h -3 z"
     id="path3829"
     inkscape:connector-curvature="0"
     style="fill:#3f48cc" />
  <path
     d="m 18,20 h 1 v 1 h -1 z"
     id="path3831"
     inkscape:connector-curvature="0"
     style="fill:#3f48cc" />
  <path
     d="m 16,23 h 5 v 1 h -1 v 2 h -3 v -2 h -1 z"
     id="path3833"
     inkscape:connector-curvature="0"
     style="fill:#eeeeee" />
  <path
     d="m 28,26 h 3 v 1 h -3 z"
     id="path3835"
     inkscape:connector-curvature="0"
     style="fill:#3f48cc" />
  <path
     d="m 27,27 h 1 v 1 h 1 v 1 h -2 z"
     id="path3837"
     inkscape:connector-curvature="0"
     style="fill:#3f48cc" />
  <path
     d="m 31,27 h 1 v 3 h -1 z"
     id="path3839"
     inkscape:connector-curvature="0"
     style="fill:#3f48cc" />
  <path
     d="m 30,30 h 1 v 1 h -1 z"
     id="path3841"
     inkscape:connector-curvature="0"
     style="fill:#3f48cc" />
  <path
     d="m 24,31 h 6 v 1 h -6 z"
     id="path3843"
     inkscape:connector-curvature="0"
     style="fill:#3f48cc" />
</svg>
