<?xml version="1.0" encoding="UTF-8" standalone="no"?>
<!-- generated at drububu.com  -->

<svg
   xmlns:dc="http://purl.org/dc/elements/1.1/"
   xmlns:cc="http://creativecommons.org/ns#"
   xmlns:rdf="http://www.w3.org/1999/02/22-rdf-syntax-ns#"
   xmlns:svg="http://www.w3.org/2000/svg"
   xmlns="http://www.w3.org/2000/svg"
   xmlns:sodipodi="http://sodipodi.sourceforge.net/DTD/sodipodi-0.dtd"
   xmlns:inkscape="http://www.inkscape.org/namespaces/inkscape"
   version="1.1"
   preserveAspectRatio="xMinYMin meet"
   x="0px"
   y="0px"
   width="38"
   height="36"
   viewBox="0 0 38 36"
   id="svg3531"
   inkscape:version="0.48.4 r9939"
   sodipodi:docname="green-monkey.svg">
  <metadata
     id="metadata3659">
    <rdf:RDF>
      <cc:Work
         rdf:about="">
        <dc:format>image/svg+xml</dc:format>
        <dc:type
           rdf:resource="http://purl.org/dc/dcmitype/StillImage" />
      </cc:Work>
    </rdf:RDF>
  </metadata>
  <defs
     id="defs3657" />
  <sodipodi:namedview
     pagecolor="#ffffff"
     bordercolor="#666666"
     borderopacity="1"
     objecttolerance="10"
     gridtolerance="10"
     guidetolerance="10"
     inkscape:pageopacity="0"
     inkscape:pageshadow="2"
     inkscape:window-width="1600"
     inkscape:window-height="838"
     id="namedview3655"
     showgrid="false"
     fit-margin-top="0"
     fit-margin-left="0"
     fit-margin-right="0"
     fit-margin-bottom="0"
     inkscape:zoom="6.2105263"
     inkscape:cx="19"
     inkscape:cy="19"
     inkscape:window-x="-8"
     inkscape:window-y="-8"
     inkscape:window-maximized="1"
     inkscape:current-layer="svg3531" />
  <path
     d="m 15,0 h 7 v 1 h 3 v 1 h 2 v 1 h 1 V 4 H 27 V 5 H 26 V 6 H 24 V 5 H 23 V 4 H 22 V 5 H 21 V 6 H 20 V 7 H 18 V 8 H 16 V 7 H 15 V 6 H 14 V 5 H 13 V 6 H 12 V 8 H 10 V 7 H 9 V 4 h 1 V 3 h 1 V 2 h 2 V 1 h 2 z"
     id="path3535"
     inkscape:connector-curvature="0"
     style="fill:#22b14c" />
  <path
     d="M 3,4 H 7 V 5 H 3 z"
     id="path3537"
     inkscape:connector-curvature="0"
     style="fill:#22b14c" />
  <path
     d="m 22,4 h 1 v 1 h -1 z"
     id="path3539"
     inkscape:connector-curvature="0"
     style="fill:#eeeeee" />
  <path
     d="m 27,4 h 1 v 1 h -1 z"
     id="path3541"
     inkscape:connector-curvature="0"
     style="fill:#eeeeee" />
  <path
     d="m 28,4 h 1 v 1 h -1 z"
     id="path3543"
     inkscape:connector-curvature="0"
     style="fill:#22b14c" />
  <path
     d="m 31,4 h 4 v 1 h -4 z"
     id="path3545"
     inkscape:connector-curvature="0"
     style="fill:#22b14c" />
  <path
     d="M 2,5 H 3 V 6 H 2 z"
     id="path3547"
     inkscape:connector-curvature="0"
     style="fill:#22b14c" />
  <path
     d="M 3,5 H 7 V 9 H 6 v 6 h 1 v 2 H 4 V 16 H 2 V 14 H 1 V 8 H 2 V 6 h 1 z"
     id="path3549"
     inkscape:connector-curvature="0"
     style="fill:#eeeeee" />
  <path
     d="m 7,5 h 1 v 2 h 1 v 1 h 1 v 1 h 2 V 8 h 1 V 6 h 1 v 1 h 1 v 1 h 1 v 1 h 3 V 8 h 1 V 7 h 1 V 6 h 1 V 5 h 1 v 1 h 1 v 1 h 2 V 6 h 1 V 5 h 1 v 1 h 1 v 1 h 1 V 6 H 29 V 5 h 2 v 4 h 1 v 5 h -1 v 3 h -1 v -1 h -1 v 1 h 1 v 1 h -1 v 1 h -1 v 1 h -1 v 1 h -2 v -4 h 1 v 2 h 1 v -1 h 1 v -1 h -1 v -1 h -1 v -1 h -1 v -1 h -2 v -1 h -8 v 1 h -2 v 1 h -1 v 1 h -1 v 3 h 1 v -2 h 1 v 1 h 1 v 3 h 1 v -4 h 1 v 5 h 6 v 1 h 1 v 1 h 1 v 7 h -1 v 3 h -1 v 1 h -1 v 1 h -2 v -4 h -1 v 4 h -2 v -1 h -1 v -1 h -1 v -4 h -1 v -6 h 1 v -1 h 1 V 22 H 13 V 21 H 11 V 20 H 10 V 19 H 9 V 18 H 8 V 17 H 7 V 15 H 6 V 9 h 1 z"
     id="path3551"
     inkscape:connector-curvature="0"
     style="fill:#22b14c" />
  <path
     d="m 13,5 h 1 v 1 h -1 z"
     id="path3553"
     inkscape:connector-curvature="0"
     style="fill:#eeeeee" />
  <path
     d="m 21,5 h 1 v 1 h -1 z"
     id="path3555"
     inkscape:connector-curvature="0"
     style="fill:#eeeeee" />
  <path
     d="m 23,5 h 1 v 1 h -1 z"
     id="path3557"
     inkscape:connector-curvature="0"
     style="fill:#eeeeee" />
  <path
     d="m 26,5 h 1 v 1 h -1 z"
     id="path3559"
     inkscape:connector-curvature="0"
     style="fill:#eeeeee" />
  <path
     d="m 28,5 h 1 v 1 h -1 z"
     id="path3561"
     inkscape:connector-curvature="0"
     style="fill:#eeeeee" />
  <path
     d="m 31,5 h 4 v 1 h 1 v 2 h 1 v 6 h -1 v 2 h -2 v 1 h -3 v -3 h 1 V 9 h -1 z"
     id="path3563"
     inkscape:connector-curvature="0"
     style="fill:#eeeeee" />
  <path
     d="m 35,5 h 1 v 1 h -1 z"
     id="path3565"
     inkscape:connector-curvature="0"
     style="fill:#22b14c" />
  <path
     d="M 1,6 H 2 V 8 H 1 z"
     id="path3567"
     inkscape:connector-curvature="0"
     style="fill:#22b14c" />
  <path
     d="m 12,6 h 1 v 2 h -1 z"
     id="path3569"
     inkscape:connector-curvature="0"
     style="fill:#eeeeee" />
  <path
     d="m 14,6 h 1 v 1 h -1 z"
     id="path3571"
     inkscape:connector-curvature="0"
     style="fill:#eeeeee" />
  <path
     d="m 20,6 h 1 v 1 h -1 z"
     id="path3573"
     inkscape:connector-curvature="0"
     style="fill:#eeeeee" />
  <path
     d="m 24,6 h 2 v 1 h -2 z"
     id="path3575"
     inkscape:connector-curvature="0"
     style="fill:#eeeeee" />
  <path
     d="m 29,6 h 1 v 1 h -1 z"
     id="path3577"
     inkscape:connector-curvature="0"
     style="fill:#eeeeee" />
  <path
     d="m 36,6 h 1 v 2 h -1 z"
     id="path3579"
     inkscape:connector-curvature="0"
     style="fill:#22b14c" />
  <path
     d="m 9,7 h 1 V 8 H 9 z"
     id="path3581"
     inkscape:connector-curvature="0"
     style="fill:#eeeeee" />
  <path
     d="m 15,7 h 1 v 1 h -1 z"
     id="path3583"
     inkscape:connector-curvature="0"
     style="fill:#eeeeee" />
  <path
     d="m 18,7 h 2 V 8 H 19 V 9 H 16 V 8 h 2 z"
     id="path3585"
     inkscape:connector-curvature="0"
     style="fill:#eeeeee" />
  <path
     d="m 0,8 h 1 v 6 H 0 z"
     id="path3587"
     inkscape:connector-curvature="0"
     style="fill:#22b14c" />
  <path
     d="m 10,8 h 2 v 1 h -2 z"
     id="path3589"
     inkscape:connector-curvature="0"
     style="fill:#eeeeee" />
  <path
     d="m 37,8 h 1 v 6 h -1 z"
     id="path3591"
     inkscape:connector-curvature="0"
     style="fill:#22b14c" />
  <path
     d="m 8,10 h 1 v 1 H 8 z"
     id="path3593"
     inkscape:connector-curvature="0"
     style="fill:#eeeeee" />
  <path
     d="m 27,10 h 1 v 1 h 1 v 1 h -1 v 1 h -1 v -1 h -1 v -1 h 1 z"
     id="path3595"
     inkscape:connector-curvature="0"
     style="fill:#eeeeee" />
  <path
     d="m 20,11 h 1 v 1 h -1 z"
     id="path3597"
     inkscape:connector-curvature="0"
     style="fill:#eeeeee" />
  <path
     d="m 9,12 h 1 v 1 h 1 v 1 h -1 v 1 H 9 V 14 H 8 v -1 h 1 z"
     id="path3599"
     inkscape:connector-curvature="0"
     style="fill:#eeeeee" />
  <path
     d="m 15,13 h 8 v 1 h -2 v 1 h 2 v -1 h 2 v 1 h 1 v 1 h 1 v 1 h 1 v 1 h -1 v 1 h -1 v -2 h -1 v -1 h -2 v 1 h -1 v 5 h -6 v -5 h -1 v -1 h -2 v 1 h -1 v 2 h -1 v -3 h 1 v -1 h 1 v -1 h 2 v 1 h 2 v -1 h -2 z"
     id="path3601"
     inkscape:connector-curvature="0"
     style="fill:#eeeeee" />
  <path
     d="m 1,14 h 1 v 2 H 1 z"
     id="path3605"
     inkscape:connector-curvature="0"
     style="fill:#22b14c" />
  <path
     d="m 15,14 h 2 v 1 h -2 z"
     id="path3607"
     inkscape:connector-curvature="0"
     style="fill:#22b14c" />
  <path
     d="m 21,14 h 2 v 1 h -2 z"
     id="path3609"
     inkscape:connector-curvature="0"
     style="fill:#22b14c" />
  <path
     d="m 28,14 h 1 v 1 h -1 z"
     id="path3611"
     inkscape:connector-curvature="0"
     style="fill:#eeeeee" />
  <path
     d="m 36,14 h 1 v 2 h -1 z"
     id="path3613"
     inkscape:connector-curvature="0"
     style="fill:#22b14c" />
  <path
     d="m 2,16 h 2 v 1 H 2 z"
     id="path3617"
     inkscape:connector-curvature="0"
     style="fill:#22b14c" />
  <path
     d="m 9,16 h 1 v 1 H 9 z"
     id="path3619"
     inkscape:connector-curvature="0"
     style="fill:#eeeeee" />
  <path
     d="m 13,16 h 2 v 1 h -2 z"
     id="path3621"
     inkscape:connector-curvature="0"
     style="fill:#22b14c" />
  <path
     d="m 23,16 h 2 v 1 h -2 z"
     id="path3623"
     inkscape:connector-curvature="0"
     style="fill:#22b14c" />
  <path
     d="m 29,16 h 1 v 1 h -1 z"
     id="path3625"
     inkscape:connector-curvature="0"
     style="fill:#eeeeee" />
  <path
     d="m 34,16 h 2 v 1 h -2 z"
     id="path3627"
     inkscape:connector-curvature="0"
     style="fill:#22b14c" />
  <path
     d="m 4,17 h 3 v 1 H 4 z"
     id="path3629"
     inkscape:connector-curvature="0"
     style="fill:#22b14c" />
  <path
     d="m 13,17 h 2 v 4 h -1 v -3 h -1 z"
     id="path3631"
     inkscape:connector-curvature="0"
     style="fill:#eeeeee" />
  <path
     d="m 22,17 h 1 v 1 h 1 v 3 h 1 v 1 h -3 z"
     id="path3633"
     inkscape:connector-curvature="0"
     style="fill:#22b14c" />
  <path
     d="m 23,17 h 2 v 4 h -1 v -3 h -1 z"
     id="path3635"
     inkscape:connector-curvature="0"
     style="fill:#eeeeee" />
  <path
     d="m 31,17 h 3 v 1 h -3 z"
     id="path3637"
     inkscape:connector-curvature="0"
     style="fill:#22b14c" />
  <path
     d="m 18,20 h 1 v 1 h -1 z"
     id="path3639"
     inkscape:connector-curvature="0"
     style="fill:#22b14c" />
  <path
     d="m 16,23 h 5 v 1 h -1 v 2 h -3 v -2 h -1 z"
     id="path3641"
     inkscape:connector-curvature="0"
     style="fill:#eeeeee" />
  <path
     d="m 28,26 h 3 v 1 h -3 z"
     id="path3643"
     inkscape:connector-curvature="0"
     style="fill:#22b14c" />
  <path
     d="m 27,27 h 1 v 1 h 1 v 1 h -2 z"
     id="path3645"
     inkscape:connector-curvature="0"
     style="fill:#22b14c" />
  <path
     d="m 31,27 h 1 v 3 h -1 z"
     id="path3647"
     inkscape:connector-curvature="0"
     style="fill:#22b14c" />
  <path
     d="m 30,30 h 1 v 1 h -1 z"
     id="path3649"
     inkscape:connector-curvature="0"
     style="fill:#22b14c" />
  <path
     d="m 24,31 h 6 v 1 h -6 z"
     id="path3651"
     inkscape:connector-curvature="0"
     style="fill:#22b14c" />
</svg>
