<?xml version="1.0" encoding="UTF-8" standalone="no"?>
<!-- generated at drububu.com  -->

<svg
   xmlns:dc="http://purl.org/dc/elements/1.1/"
   xmlns:cc="http://creativecommons.org/ns#"
   xmlns:rdf="http://www.w3.org/1999/02/22-rdf-syntax-ns#"
   xmlns:svg="http://www.w3.org/2000/svg"
   xmlns="http://www.w3.org/2000/svg"
   xmlns:sodipodi="http://sodipodi.sourceforge.net/DTD/sodipodi-0.dtd"
   xmlns:inkscape="http://www.inkscape.org/namespaces/inkscape"
   version="1.1"
   preserveAspectRatio="xMinYMin meet"
   x="0px"
   y="0px"
   width="38"
   height="36"
   viewBox="0 0 38 36"
   id="svg3261"
   inkscape:version="0.48.4 r9939"
   sodipodi:docname="purple-monkey.svg">
  <metadata
     id="metadata3355">
    <rdf:RDF>
      <cc:Work
         rdf:about="">
        <dc:format>image/svg+xml</dc:format>
        <dc:type
           rdf:resource="http://purl.org/dc/dcmitype/StillImage" />
      </cc:Work>
    </rdf:RDF>
  </metadata>
  <defs
     id="defs3353" />
  <sodipodi:namedview
     pagecolor="#ffffff"
     bordercolor="#666666"
     borderopacity="1"
     objecttolerance="10"
     gridtolerance="10"
     guidetolerance="10"
     inkscape:pageopacity="0"
     inkscape:pageshadow="2"
     inkscape:window-width="1600"
     inkscape:window-height="838"
     id="namedview3351"
     showgrid="false"
     fit-margin-top="0"
     fit-margin-left="0"
     fit-margin-right="0"
     fit-margin-bottom="0"
     inkscape:zoom="12.421053"
     inkscape:cx="16.51925"
     inkscape:cy="22.111946"
     inkscape:window-x="-8"
     inkscape:window-y="-8"
     inkscape:window-maximized="1"
     inkscape:current-layer="svg3261" />
  <path
     d="m 15,0 h 7 V 1 H 21 V 2 H 16 V 1 h -1 z"
     id="path3265"
     inkscape:connector-curvature="0"
     style="fill:#a349a4" />
  <path
     d="m 13,1 h 2 v 1 h 1 v 1 h 5 V 2 h 1 V 1 h 3 V 2 H 24 V 3 H 23 V 4 H 21 V 5 H 16 V 4 H 14 V 3 h -1 z"
     id="path3267"
     inkscape:connector-curvature="0"
     style="fill:#a349a4" />
  <path
     d="m 15,1 h 1 v 1 h -1 z"
     id="path3269"
     inkscape:connector-curvature="0"
     style="fill:#eeeeee" />
  <path
     d="m 21,1 h 1 v 1 h -1 z"
     id="path3271"
     inkscape:connector-curvature="0"
     style="fill:#eeeeee" />
  <path
     d="m 11,2 h 1 v 2 h 1 v 1 h 1 v 1 h 2 v 1 h 5 V 6 h 2 V 5 h 1 V 4 h 1 V 3 h 1 V 2 h 1 v 1 h 1 V 5 H 27 V 6 H 26 V 7 H 23 V 8 H 15 V 7 H 13 V 6 H 11 V 5 H 10 V 3 h 1 z"
     id="path3273"
     inkscape:connector-curvature="0"
     style="fill:#a349a4" />
  <path
     d="m 12,2 h 1 v 1 h 1 v 1 h 2 v 1 h 5 V 4 h 2 V 3 h 1 V 2 h 2 V 3 H 25 V 4 H 24 V 5 H 23 V 6 H 21 V 7 H 16 V 6 H 14 V 5 H 13 V 4 h -1 z"
     id="path3275"
     inkscape:connector-curvature="0"
     style="fill:#eeeeee" />
  <path
     d="m 16,2 h 5 v 1 h -5 z"
     id="path3277"
     inkscape:connector-curvature="0"
     style="fill:#eeeeee" />
  <path
     d="M 3,4 H 7 V 5 H 3 z"
     id="path3279"
     inkscape:connector-curvature="0"
     style="fill:#a349a4" />
  <path
     d="m 9,4 h 1 v 1 h 1 v 1 h 2 v 1 h 2 v 1 h 8 V 7 h 3 V 6 h 1 V 5 h 1 V 4 h 1 v 1 h 1 v 1 h -1 v 1 h -1 v 1 h -1 v 1 h -1 v 1 h -3 v 1 H 15 V 10 H 13 V 9 H 11 V 8 H 10 V 7 H 9 V 6 H 8 V 5 h 1 z"
     id="path3281"
     inkscape:connector-curvature="0"
     style="fill:#eeeeee" />
  <path
     d="m 31,4 h 4 v 1 h -4 z"
     id="path3283"
     inkscape:connector-curvature="0"
     style="fill:#a349a4" />
  <path
     d="M 2,5 H 3 V 6 H 2 z"
     id="path3285"
     inkscape:connector-curvature="0"
     style="fill:#a349a4" />
  <path
     d="M 3,5 H 7 V 9 H 6 v 6 h 1 v 2 H 4 V 16 H 2 V 14 H 1 V 8 H 2 V 6 h 1 z"
     id="path3287"
     inkscape:connector-curvature="0"
     style="fill:#eeeeee" />
  <path
     d="m 7,5 h 1 v 1 h 1 v 1 h 1 v 1 h 1 v 1 h 2 v 1 h 2 v 1 h 8 v -1 h 3 V 9 h 1 V 8 h 1 V 7 h 1 V 6 h 1 V 5 h 1 v 4 h 1 v 5 h -1 v 3 h -1 v 1 h -1 v 1 h -1 v 1 h -1 v 1 h -2 v -4 h 1 v 2 h 1 v -3 h -1 v -1 h -1 v -1 h -2 v -1 h -8 v 1 h -2 v 1 h -1 v 1 h -1 v 3 h 1 v -2 h 1 v 1 h 1 v 3 h 1 v -4 h 1 v 5 h 6 v 1 h 1 v 1 h 1 v 7 h -1 v 3 h -1 v 1 h -1 v 1 h -2 v -4 h -1 v 4 h -2 v -1 h -1 v -1 h -1 v -4 h -1 v -6 h 1 v -1 h 1 V 22 H 13 V 21 H 11 V 20 H 10 V 19 H 9 V 18 H 8 V 17 H 7 V 15 H 6 V 9 h 1 z"
     id="path3289"
     inkscape:connector-curvature="0"
     style="fill:#a349a4" />
  <path
     d="m 31,5 h 4 v 1 h 1 v 2 h 1 v 6 h -1 v 2 h -2 v 1 h -3 v -3 h 1 V 9 h -1 z"
     id="path3291"
     inkscape:connector-curvature="0"
     style="fill:#eeeeee" />
  <path
     d="m 35,5 h 1 v 1 h -1 z"
     id="path3293"
     inkscape:connector-curvature="0"
     style="fill:#a349a4" />
  <path
     d="M 1,6 H 2 V 8 H 1 z"
     id="path3295"
     inkscape:connector-curvature="0"
     style="fill:#a349a4" />
  <path
     d="m 36,6 h 1 v 2 h -1 z"
     id="path3297"
     inkscape:connector-curvature="0"
     style="fill:#a349a4" />
  <path
     d="m 0,8 h 1 v 6 H 0 z"
     id="path3299"
     inkscape:connector-curvature="0"
     style="fill:#a349a4" />
  <path
     d="m 37,8 h 1 v 6 h -1 z"
     id="path3301"
     inkscape:connector-curvature="0"
     style="fill:#a349a4" />
  <path
     d="m 15,13 h 8 v 1 h -2 v 1 h 2 v -1 h 2 v 1 h 1 v 1 h 1 v 3 h -1 v -2 h -1 v -1 h -2 v 1 h -1 v 5 h -6 v -5 h -1 v -1 h -2 v 1 h -1 v 2 h -1 v -3 h 1 v -1 h 1 v -1 h 2 v 1 h 2 v -1 h -2 z"
     id="path3303"
     inkscape:connector-curvature="0"
     style="fill:#eeeeee" />
  <path
     d="m 1,14 h 1 v 2 H 1 z"
     id="path3307"
     inkscape:connector-curvature="0"
     style="fill:#a349a4" />
  <path
     d="m 15,14 h 2 v 1 h -2 z"
     id="path3309"
     inkscape:connector-curvature="0"
     style="fill:#a349a4" />
  <path
     d="m 21,14 h 2 v 1 h -2 z"
     id="path3311"
     inkscape:connector-curvature="0"
     style="fill:#a349a4" />
  <path
     d="m 36,14 h 1 v 2 h -1 z"
     id="path3313"
     inkscape:connector-curvature="0"
     style="fill:#a349a4" />
  <path
     d="m 2,16 h 2 v 1 H 2 z"
     id="path3317"
     inkscape:connector-curvature="0"
     style="fill:#a349a4" />
  <path
     d="m 13,16 h 2 v 1 h -2 z"
     id="path3319"
     inkscape:connector-curvature="0"
     style="fill:#a349a4" />
  <path
     d="m 23,16 h 2 v 1 h -2 z"
     id="path3321"
     inkscape:connector-curvature="0"
     style="fill:#a349a4" />
  <path
     d="m 34,16 h 2 v 1 h -2 z"
     id="path3323"
     inkscape:connector-curvature="0"
     style="fill:#a349a4" />
  <path
     d="m 4,17 h 3 v 1 H 4 z"
     id="path3325"
     inkscape:connector-curvature="0"
     style="fill:#a349a4" />
  <path
     d="m 13,17 h 2 v 4 h -1 v -3 h -1 z"
     id="path3327"
     inkscape:connector-curvature="0"
     style="fill:#eeeeee" />
  <path
     d="m 22,17 h 1 v 1 h 1 v 3 h 1 v 1 h -3 z"
     id="path3329"
     inkscape:connector-curvature="0"
     style="fill:#a349a4" />
  <path
     d="m 23,17 h 2 v 4 h -1 v -3 h -1 z"
     id="path3331"
     inkscape:connector-curvature="0"
     style="fill:#eeeeee" />
  <path
     d="m 31,17 h 3 v 1 h -3 z"
     id="path3333"
     inkscape:connector-curvature="0"
     style="fill:#a349a4" />
  <path
     d="m 18,20 h 1 v 1 h -1 z"
     id="path3335"
     inkscape:connector-curvature="0"
     style="fill:#a349a4" />
  <path
     d="m 16,23 h 5 v 1 h -1 v 2 h -3 v -2 h -1 z"
     id="path3337"
     inkscape:connector-curvature="0"
     style="fill:#eeeeee" />
  <path
     d="m 28,26 h 3 v 1 h -3 z"
     id="path3339"
     inkscape:connector-curvature="0"
     style="fill:#a349a4" />
  <path
     d="m 27,27 h 1 v 1 h 1 v 1 h -2 z"
     id="path3341"
     inkscape:connector-curvature="0"
     style="fill:#a349a4" />
  <path
     d="m 31,27 h 1 v 3 h -1 z"
     id="path3343"
     inkscape:connector-curvature="0"
     style="fill:#a349a4" />
  <path
     d="m 30,30 h 1 v 1 h -1 z"
     id="path3345"
     inkscape:connector-curvature="0"
     style="fill:#a349a4" />
  <path
     d="m 24,31 h 6 v 1 h -6 z"
     id="path3347"
     inkscape:connector-curvature="0"
     style="fill:#a349a4" />
</svg>
