<?xml version="1.0" encoding="UTF-8" standalone="no"?>
<!-- generated at drububu.com  -->

<svg
   xmlns:dc="http://purl.org/dc/elements/1.1/"
   xmlns:cc="http://creativecommons.org/ns#"
   xmlns:rdf="http://www.w3.org/1999/02/22-rdf-syntax-ns#"
   xmlns:svg="http://www.w3.org/2000/svg"
   xmlns="http://www.w3.org/2000/svg"
   xmlns:sodipodi="http://sodipodi.sourceforge.net/DTD/sodipodi-0.dtd"
   xmlns:inkscape="http://www.inkscape.org/namespaces/inkscape"
   version="1.1"
   preserveAspectRatio="xMinYMin meet"
   x="0px"
   y="0px"
   width="38"
   height="36"
   viewBox="0 0 38 36"
   id="svg3075"
   inkscape:version="0.48.4 r9939"
   sodipodi:docname="red-monkey.svg">
  <metadata
     id="metadata3163">
    <rdf:RDF>
      <cc:Work
         rdf:about="">
        <dc:format>image/svg+xml</dc:format>
        <dc:type
           rdf:resource="http://purl.org/dc/dcmitype/StillImage" />
      </cc:Work>
    </rdf:RDF>
  </metadata>
  <defs
     id="defs3161" />
  <sodipodi:namedview
     pagecolor="#ffffff"
     bordercolor="#666666"
     borderopacity="1"
     objecttolerance="10"
     gridtolerance="10"
     guidetolerance="10"
     inkscape:pageopacity="0"
     inkscape:pageshadow="2"
     inkscape:window-width="1600"
     inkscape:window-height="838"
     id="namedview3159"
     showgrid="false"
     fit-margin-top="0"
     fit-margin-left="0"
     fit-margin-right="0"
     fit-margin-bottom="0"
     inkscape:zoom="17.131579"
     inkscape:cx="19"
     inkscape:cy="19"
     inkscape:window-x="-8"
     inkscape:window-y="-8"
     inkscape:window-maximized="1"
     inkscape:current-layer="svg3075" />
  <path
     d="m 15,0 h 7 v 1 h 3 v 1 h 2 v 1 h 1 v 1 h 1 v 1 h 2 v 4 h 1 v 5 h -1 v 3 h -1 v 1 h -1 v 1 h -1 v 1 h -1 v 1 h -2 v -4 h 1 v 2 h 1 v -3 h -1 v -1 h -1 v -1 h -2 v -1 h -8 v 1 h -2 v 1 h -1 v 1 h -1 v 3 h 1 v -2 h 1 v 1 h 1 v 3 h 1 v -4 h 1 v 5 h 6 v 1 h 1 v 1 h 1 v 7 h -1 v 3 h -1 v 1 h -1 v 1 h -2 v -4 h -1 v 4 h -2 v -1 h -1 v -1 h -1 v -4 h -1 v -6 h 1 v -1 h 1 V 22 H 13 V 21 H 11 V 20 H 10 V 19 H 9 V 18 H 8 V 17 H 7 V 15 H 6 V 9 H 7 V 5 H 9 V 4 h 1 V 3 h 1 V 2 h 2 V 1 h 2 z"
     id="path3079"
     inkscape:connector-curvature="0"
     style="fill:#ed1c24" />
  <path
     d="m 14,2 h 1 v 1 h -1 z"
     id="path3081"
     inkscape:connector-curvature="0"
     style="fill:#eeeeee" />
  <path
     d="m 17,2 h 2 v 1 h 1 V 5 H 19 V 6 H 17 V 5 H 16 V 3 h 1 z"
     id="path3083"
     inkscape:connector-curvature="0"
     style="fill:#eeeeee" />
  <path
     d="M 3,4 H 7 V 5 H 3 z"
     id="path3085"
     inkscape:connector-curvature="0"
     style="fill:#ed1c24" />
  <path
     d="m 12,4 h 2 v 2 h -2 z"
     id="path3087"
     inkscape:connector-curvature="0"
     style="fill:#eeeeee" />
  <path
     d="m 31,4 h 4 v 1 h -4 z"
     id="path3089"
     inkscape:connector-curvature="0"
     style="fill:#ed1c24" />
  <path
     d="M 2,5 H 3 V 6 H 2 z"
     id="path3091"
     inkscape:connector-curvature="0"
     style="fill:#ed1c24" />
  <path
     d="M 3,5 H 7 V 9 H 6 v 6 h 1 v 2 H 4 V 16 H 2 V 14 H 1 V 8 H 2 V 6 h 1 z"
     id="path3093"
     inkscape:connector-curvature="0"
     style="fill:#eeeeee" />
  <path
     d="m 31,5 h 4 v 1 h 1 v 2 h 1 v 6 h -1 v 2 h -2 v 1 h -3 v -3 h 1 V 9 h -1 z"
     id="path3095"
     inkscape:connector-curvature="0"
     style="fill:#eeeeee" />
  <path
     d="m 35,5 h 1 v 1 h -1 z"
     id="path3097"
     inkscape:connector-curvature="0"
     style="fill:#ed1c24" />
  <path
     d="M 1,6 H 2 V 8 H 1 z"
     id="path3099"
     inkscape:connector-curvature="0"
     style="fill:#ed1c24" />
  <path
     d="M 8,6 H 9 V 7 H 8 z"
     id="path3101"
     inkscape:connector-curvature="0"
     style="fill:#eeeeee" />
  <path
     d="m 36,6 h 1 v 2 h -1 z"
     id="path3103"
     inkscape:connector-curvature="0"
     style="fill:#ed1c24" />
  <path
     d="m 0,8 h 1 v 6 H 0 z"
     id="path3105"
     inkscape:connector-curvature="0"
     style="fill:#ed1c24" />
  <path
     d="m 9,8 h 2 v 1 h 1 v 3 h -1 v 1 H 9 V 12 H 8 V 9 h 1 z"
     id="path3107"
     inkscape:connector-curvature="0"
     style="fill:#eeeeee" />
  <path
     d="m 37,8 h 1 v 6 h -1 z"
     id="path3109"
     inkscape:connector-curvature="0"
     style="fill:#ed1c24" />
  <path
     d="m 15,13 h 8 v 1 h -2 v 1 h 2 v -1 h 2 v 1 h 1 v 1 h 1 v 3 h -1 v -2 h -1 v -1 h -2 v 1 h -1 v 5 h -6 v -5 h -1 v -1 h -2 v 1 h -1 v 2 h -1 v -3 h 1 v -1 h 1 v -1 h 2 v 1 h 2 v -1 h -2 z"
     id="path3111"
     inkscape:connector-curvature="0"
     style="fill:#eeeeee" />
  <path
     d="m 1,14 h 1 v 2 H 1 z"
     id="path3115"
     inkscape:connector-curvature="0"
     style="fill:#ed1c24" />
  <path
     d="m 15,14 h 2 v 1 h -2 z"
     id="path3117"
     inkscape:connector-curvature="0"
     style="fill:#ed1c24" />
  <path
     d="m 21,14 h 2 v 1 h -2 z"
     id="path3119"
     inkscape:connector-curvature="0"
     style="fill:#ed1c24" />
  <path
     d="m 36,14 h 1 v 2 h -1 z"
     id="path3121"
     inkscape:connector-curvature="0"
     style="fill:#ed1c24" />
  <path
     d="m 2,16 h 2 v 1 H 2 z"
     id="path3125"
     inkscape:connector-curvature="0"
     style="fill:#ed1c24" />
  <path
     d="m 13,16 h 2 v 1 h -2 z"
     id="path3127"
     inkscape:connector-curvature="0"
     style="fill:#ed1c24" />
  <path
     d="m 23,16 h 2 v 1 h -2 z"
     id="path3129"
     inkscape:connector-curvature="0"
     style="fill:#ed1c24" />
  <path
     d="m 34,16 h 2 v 1 h -2 z"
     id="path3131"
     inkscape:connector-curvature="0"
     style="fill:#ed1c24" />
  <path
     d="m 4,17 h 3 v 1 H 4 z"
     id="path3133"
     inkscape:connector-curvature="0"
     style="fill:#ed1c24" />
  <path
     d="m 13,17 h 2 v 4 h -1 v -3 h -1 z"
     id="path3135"
     inkscape:connector-curvature="0"
     style="fill:#eeeeee" />
  <path
     d="m 22,17 h 1 v 1 h 1 v 3 h 1 v 1 h -3 z"
     id="path3137"
     inkscape:connector-curvature="0"
     style="fill:#ed1c24" />
  <path
     d="m 23,17 h 2 v 4 h -1 v -3 h -1 z"
     id="path3139"
     inkscape:connector-curvature="0"
     style="fill:#eeeeee" />
  <path
     d="m 31,17 h 3 v 1 h -3 z"
     id="path3141"
     inkscape:connector-curvature="0"
     style="fill:#ed1c24" />
  <path
     d="m 18,20 h 1 v 1 h -1 z"
     id="path3143"
     inkscape:connector-curvature="0"
     style="fill:#ed1c24" />
  <path
     d="m 16,23 h 5 v 1 h -1 v 2 h -3 v -2 h -1 z"
     id="path3145"
     inkscape:connector-curvature="0"
     style="fill:#eeeeee" />
  <path
     d="m 28,26 h 3 v 1 h -3 z"
     id="path3147"
     inkscape:connector-curvature="0"
     style="fill:#ed1c24" />
  <path
     d="m 27,27 h 1 v 1 h 1 v 1 h -2 z"
     id="path3149"
     inkscape:connector-curvature="0"
     style="fill:#ed1c24" />
  <path
     d="m 31,27 h 1 v 3 h -1 z"
     id="path3151"
     inkscape:connector-curvature="0"
     style="fill:#ed1c24" />
  <path
     d="m 30,30 h 1 v 1 h -1 z"
     id="path3153"
     inkscape:connector-curvature="0"
     style="fill:#ed1c24" />
  <path
     d="m 24,31 h 6 v 1 h -6 z"
     id="path3155"
     inkscape:connector-curvature="0"
     style="fill:#ed1c24" />
</svg>
