<?xml version="1.0" encoding="utf-8"?>
<!-- generated at drububu.com  -->
<!DOCTYPE svg PUBLIC "-//W3C//DTD SVG 1.1//EN" "http://www.w3.org/Graphics/SVG/1.1/DTD/svg11.dtd">
<svg version="1.1" preserveAspectRatio="xMinYMin meet" xmlns="http://www.w3.org/2000/svg" xmlns:xlink="http://www.w3.org/1999/xlink" x="0px" y="0px" width="216px" height="248px" viewBox="0 0 216 248">
<path d="M0 0h216v64h-87v-16h-41v16h-88z" fill="rgb(150,192,206)"/>
<path d="M88 48h41v32h60v105h-161v-105h60z" fill="rgb(82,85,100)"/>
<path d="M89 49h39v23h-39z" fill="rgb(194,91,86)"/>
<path d="M0 64h88v1h-88z" fill="rgb(160,155,152)"/>
<path d="M129 64h87v1h-87z" fill="rgb(160,155,152)"/>
<path d="M0 65h88v15h-60v105h161v-105h-60v-15h87v71h-24v9h24v55h-216v-55h25v-9
	h-25z" fill="rgb(190,185,181)"/>
<path d="M89 73h39v8h28v2h-1v1h-1v1h1v-1h1v1h1v-2h1v-1h-1v-1h31v2h-1v4h-1v4h-1
	v4h-1v1h-7v-6h-1v-4h-1v-2h-1v-1h-3v1h-1v2h-1v4h-1v6h-47v-11h-1v-2h-1v-1h-1v-1
	h-2v-1h-3v-1h-9v1h-3v1h-2v1h-1v1h-1v2h-1v11h-33v-1h-1v1h-1v-2h1v-1h2v-1h-1v-1h-1
	v2h-1v1h-1v-1h-1v-1h1v-1h-1v1h-1v1h1v1h1v2h-11v-6h-1v-4h-1v-2h-1v-1h-3v1h-1v2
	h-1v4h-1v6h-7v-2h-1v-4h-1v-4h-1v-4h-1v-1h60z" fill="rgb(116,130,143)"/>
<path d="M105 80h1v16h-1z" fill="rgb(116,130,143)"/>
<path d="M108 80h1v16h-1z" fill="rgb(116,130,143)"/>
<path d="M111 80h1v16h-1z" fill="rgb(116,130,143)"/>
<path d="M159 83h1v1h-1z" fill="rgb(82,85,100)"/>
<path d="M154 84h1v1h-1z" fill="rgb(82,85,100)"/>
<path d="M158 84h1v2h-1z" fill="rgb(82,85,100)"/>
<path d="M160 84h1v1h-1z" fill="rgb(82,85,100)"/>
<path d="M152 86h1v1h-1z" fill="rgb(82,85,100)"/>
<path d="M157 86h1v1h-1z" fill="rgb(82,85,100)"/>
<path d="M63 88h1v1h-1z" fill="rgb(82,85,100)"/>
<path d="M58 89h1v1h-1z" fill="rgb(82,85,100)"/>
<path d="M62 89h1v1h-1z" fill="rgb(82,85,100)"/>
<path d="M59 91h1v1h-1z" fill="rgb(82,85,100)"/>
<path d="M62 91h1v1h1v1h-2z" fill="rgb(82,85,100)"/>
<path d="M58 92h1v1h-1z" fill="rgb(82,85,100)"/>
<path d="M59 93h1v1h-1z" fill="rgb(82,85,100)"/>
<path d="M61 93h1v1h-1z" fill="rgb(82,85,100)"/>
<path d="M33 97h151v87h-151z" fill="rgb(254,246,235)"/>
<path d="M0 136h1v1h-1z" fill="rgb(116,130,143)"/>
<path d="M1 136h1v1h1v-1h1v1h1v-1h1v1h1v-1h1v1h1v-1h1v1h1v-1h1v1h1v-1h1v1h1v-1
	h1v1h1v-1h1v1h1v-1h1v1h1v-1h1v1h1v-1h1v1h1v1h-1v1h1v1h-1v1h1v1h-1v1h1v1h-1v1h-1
	v-1h-1v1h-1v-1h-1v1h-1v-1h-1v1h-1v-1h-1v1h-1v-1h-1v1h-1v-1h-1v1h-1v-1h-1v1h-1
	v-1h-1v1h-1v-1h-1v1h-1v-1h-1v1h-1v-1h-1v1h-1v-1h-1v-7h1z" fill="rgb(254,246,235)"/>
<path d="M2 136h1v1h-1z" fill="rgb(116,130,143)"/>
<path d="M4 136h1v1h-1z" fill="rgb(116,130,143)"/>
<path d="M6 136h1v1h-1z" fill="rgb(116,130,143)"/>
<path d="M8 136h1v1h-1z" fill="rgb(116,130,143)"/>
<path d="M10 136h1v1h-1z" fill="rgb(116,130,143)"/>
<path d="M12 136h1v1h-1z" fill="rgb(116,130,143)"/>
<path d="M14 136h1v1h-1z" fill="rgb(116,130,143)"/>
<path d="M16 136h1v1h-1z" fill="rgb(116,130,143)"/>
<path d="M18 136h1v1h-1z" fill="rgb(116,130,143)"/>
<path d="M20 136h1v1h-1z" fill="rgb(116,130,143)"/>
<path d="M22 136h1v1h-1z" fill="rgb(116,130,143)"/>
<path d="M24 136h1v1h-1z" fill="rgb(116,130,143)"/>
<path d="M192 136h1v1h-1z" fill="rgb(116,130,143)"/>
<path d="M193 136h1v1h1v-1h1v1h1v-1h1v1h1v-1h1v1h1v-1h1v1h1v-1h1v1h1v-1h1v1h1
	v-1h1v1h1v-1h1v1h1v-1h1v1h1v-1h1v1h1v-1h1v9h-1v-1h-1v1h-1v-1h-1v1h-1v-1h-1v1h-1
	v-1h-1v1h-1v-1h-1v1h-1v-1h-1v1h-1v-1h-1v1h-1v-1h-1v1h-1v-1h-1v1h-1v-1h-1v1h-1
	v-1h-1v1h-1v-1h-1v-1h1v-1h-1v-1h1v-1h-1v-1h1v-1h-1v-1h1z" fill="rgb(254,246,235)"/>
<path d="M194 136h1v1h-1z" fill="rgb(116,130,143)"/>
<path d="M196 136h1v1h-1z" fill="rgb(116,130,143)"/>
<path d="M198 136h1v1h-1z" fill="rgb(116,130,143)"/>
<path d="M200 136h1v1h-1z" fill="rgb(116,130,143)"/>
<path d="M202 136h1v1h-1z" fill="rgb(116,130,143)"/>
<path d="M204 136h1v1h-1z" fill="rgb(116,130,143)"/>
<path d="M206 136h1v1h-1z" fill="rgb(116,130,143)"/>
<path d="M208 136h1v1h-1z" fill="rgb(116,130,143)"/>
<path d="M210 136h1v1h-1z" fill="rgb(116,130,143)"/>
<path d="M212 136h1v1h-1z" fill="rgb(116,130,143)"/>
<path d="M214 136h1v1h-1z" fill="rgb(116,130,143)"/>
<path d="M24 138h1v1h-1z" fill="rgb(116,130,143)"/>
<path d="M192 138h1v1h-1z" fill="rgb(116,130,143)"/>
<path d="M24 140h1v1h-1z" fill="rgb(116,130,143)"/>
<path d="M192 140h1v1h-1z" fill="rgb(116,130,143)"/>
<path d="M24 142h1v1h-1z" fill="rgb(116,130,143)"/>
<path d="M192 142h1v1h-1z" fill="rgb(116,130,143)"/>
<path d="M0 144h1v1h-1z" fill="rgb(116,130,143)"/>
<path d="M2 144h1v1h-1z" fill="rgb(116,130,143)"/>
<path d="M4 144h1v1h-1z" fill="rgb(116,130,143)"/>
<path d="M6 144h1v1h-1z" fill="rgb(116,130,143)"/>
<path d="M8 144h1v1h-1z" fill="rgb(116,130,143)"/>
<path d="M10 144h1v1h-1z" fill="rgb(116,130,143)"/>
<path d="M12 144h1v1h-1z" fill="rgb(116,130,143)"/>
<path d="M14 144h1v1h-1z" fill="rgb(116,130,143)"/>
<path d="M16 144h1v1h-1z" fill="rgb(116,130,143)"/>
<path d="M18 144h1v1h-1z" fill="rgb(116,130,143)"/>
<path d="M20 144h1v1h-1z" fill="rgb(116,130,143)"/>
<path d="M22 144h1v1h-1z" fill="rgb(116,130,143)"/>
<path d="M24 144h1v1h-1z" fill="rgb(116,130,143)"/>
<path d="M192 144h1v1h-1z" fill="rgb(116,130,143)"/>
<path d="M194 144h1v1h-1z" fill="rgb(116,130,143)"/>
<path d="M196 144h1v1h-1z" fill="rgb(116,130,143)"/>
<path d="M198 144h1v1h-1z" fill="rgb(116,130,143)"/>
<path d="M200 144h1v1h-1z" fill="rgb(116,130,143)"/>
<path d="M202 144h1v1h-1z" fill="rgb(116,130,143)"/>
<path d="M204 144h1v1h-1z" fill="rgb(116,130,143)"/>
<path d="M206 144h1v1h-1z" fill="rgb(116,130,143)"/>
<path d="M208 144h1v1h-1z" fill="rgb(116,130,143)"/>
<path d="M210 144h1v1h-1z" fill="rgb(116,130,143)"/>
<path d="M212 144h1v1h-1z" fill="rgb(116,130,143)"/>
<path d="M214 144h1v1h-1z" fill="rgb(116,130,143)"/>
<path d="M0 200h216v1h-216z" fill="rgb(82,85,100)"/>
<path d="M0 201h216v47h-7v-32h-17v32h-167v-32h-1v-3h-1v-2h-1v-1h-1v-1h-2v-1h-5
	v1h-2v1h-1v1h-1v2h-1v3h-1v32h-8z" fill="rgb(160,155,152)"/>
<path d="M14 208h5v1h2v1h1v1h1v2h1v3h1v32h-17v-32h1v-3h1v-2h1v-1h1v-1h2z" fill="rgb(82,85,100)"/>
<path d="M192 216h17v32h-17z" fill="rgb(82,85,100)"/>
<path d="M16 233h2v2h-2z" fill="rgb(83,85,100)"/>
</svg>
